<?xml version="1.0" encoding="UTF-8" standalone="no"?>
<!DOCTYPE svg PUBLIC "-//W3C//DTD SVG 1.1//EN"
 "http://www.w3.org/Graphics/SVG/1.1/DTD/svg11.dtd">
<!-- Generated by graphviz version 12.2.1 (20241206.2353)
 -->
<!-- Title: sparse_multiset&lt; Key, Compare, Alloc &gt; Pages: 1 -->
<svg width="122pt" height="152pt"
 viewBox="0.00 0.00 121.50 152.00" xmlns="http://www.w3.org/2000/svg" xmlns:xlink="http://www.w3.org/1999/xlink">
<g id="graph0" class="graph" transform="scale(1 1) rotate(0) translate(4 148)">
<title>sparse_multiset&lt; Key, Compare, Alloc &gt;</title>
<!-- Node1 -->
<g id="Node000001" class="node">
<title>Node1</title>
<g id="a_Node000001"><a xlink:title="稀疏多重集合容器">
<polygon fill="#999999" stroke="#666666" points="113.5,-32 0,-32 0,0 113.5,0 113.5,-32"/>
<text text-anchor="start" x="8" y="-18.5" font-family="Helvetica,sans-Serif" font-size="10.00">sparse_multiset&lt; Key,</text>
<text text-anchor="middle" x="56.75" y="-6.5" font-family="Helvetica,sans-Serif" font-size="10.00"> Compare, Alloc &gt;</text>
</a>
</g>
</g>
<!-- Node2 -->
<g id="Node000002" class="node">
<title>Node2</title>
<g id="a_Node000002"><a xlink:href="structicollector.html" target="_top" xlink:title="集合器接口模板">
<polygon fill="white" stroke="#666666" points="95.88,-88 17.62,-88 17.62,-68 95.88,-68 95.88,-88"/>
<text text-anchor="middle" x="56.75" y="-74.5" font-family="Helvetica,sans-Serif" font-size="10.00">icollector&lt; T &gt;</text>
</a>
</g>
</g>
<!-- Node2&#45;&gt;Node1 -->
<g id="edge1_Node000001_Node000002" class="edge">
<title>Node2&#45;&gt;Node1</title>
<g id="a_edge1_Node000001_Node000002"><a xlink:title=" ">
<path fill="none" stroke="#8b1a1a" d="M56.75,-56.31C56.75,-48.37 56.75,-39.46 56.75,-32.14"/>
<polygon fill="#8b1a1a" stroke="#8b1a1a" points="53.25,-56.11 56.75,-66.11 60.25,-56.11 53.25,-56.11"/>
</a>
</g>
</g>
<!-- Node3 -->
<g id="Node000003" class="node">
<title>Node3</title>
<g id="a_Node000003"><a xlink:href="structicomparable.html" target="_top" xlink:title="可比较对象接口模板">
<polygon fill="white" stroke="#666666" points="102.62,-144 10.88,-144 10.88,-124 102.62,-124 102.62,-144"/>
<text text-anchor="middle" x="56.75" y="-130.5" font-family="Helvetica,sans-Serif" font-size="10.00">icomparable&lt; T &gt;</text>
</a>
</g>
</g>
<!-- Node3&#45;&gt;Node2 -->
<g id="edge2_Node000002_Node000003" class="edge">
<title>Node3&#45;&gt;Node2</title>
<g id="a_edge2_Node000002_Node000003"><a xlink:title=" ">
<path fill="none" stroke="#63b8ff" d="M56.75,-112.13C56.75,-103.9 56.75,-94.85 56.75,-88.3"/>
<polygon fill="#63b8ff" stroke="#63b8ff" points="53.25,-112.08 56.75,-122.08 60.25,-112.08 53.25,-112.08"/>
</a>
</g>
</g>
</g>
</svg>
