<?xml version="1.0" encoding="UTF-8" standalone="no"?>
<!DOCTYPE svg PUBLIC "-//W3C//DTD SVG 1.1//EN"
 "http://www.w3.org/Graphics/SVG/1.1/DTD/svg11.dtd">
<!-- Generated by graphviz version 12.2.1 (20241206.2353)
 -->
<!-- Title: 类继承关系图 Pages: 1 -->
<svg width="438pt" height="52pt"
 viewBox="0.00 0.00 437.75 52.00" xmlns="http://www.w3.org/2000/svg" xmlns:xlink="http://www.w3.org/1999/xlink">
<g id="graph0" class="graph" transform="scale(1 1) rotate(0) translate(4 48)">
<title>类继承关系图</title>
<!-- Node0 -->
<g id="Node000000" class="node">
<title>Node0</title>
<g id="a_Node000000"><a xlink:href="structneforce_1_1icomparable.html" target="_top" xlink:title=" ">
<polygon fill="white" stroke="#666666" points="130,-44 0,-44 0,0 130,0 130,-44"/>
<text text-anchor="start" x="8" y="-30.5" font-family="Helvetica,sans-Serif" font-size="10.00">neforce::icomparable</text>
<text text-anchor="start" x="8" y="-18.5" font-family="Helvetica,sans-Serif" font-size="10.00">&lt; hashtable_iterator</text>
<text text-anchor="middle" x="65" y="-6.5" font-family="Helvetica,sans-Serif" font-size="10.00">&lt; IsConst, HashTable &gt; &gt;</text>
</a>
</g>
</g>
<!-- Node1 -->
<g id="Node000001" class="node">
<title>Node1</title>
<g id="a_Node000001"><a xlink:href="structneforce_1_1iiterator.html" target="_top" xlink:title=" ">
<polygon fill="white" stroke="#666666" points="296,-44 166,-44 166,0 296,0 296,-44"/>
<text text-anchor="start" x="174" y="-30.5" font-family="Helvetica,sans-Serif" font-size="10.00">neforce::iiterator</text>
<text text-anchor="start" x="174" y="-18.5" font-family="Helvetica,sans-Serif" font-size="10.00">&lt; hashtable_iterator</text>
<text text-anchor="middle" x="231" y="-6.5" font-family="Helvetica,sans-Serif" font-size="10.00">&lt; IsConst, HashTable &gt; &gt;</text>
</a>
</g>
</g>
<!-- Node0&#45;&gt;Node1 -->
<g id="edge560_Node000000_Node000001" class="edge">
<title>Node0&#45;&gt;Node1</title>
<g id="a_edge560_Node000000_Node000001"><a xlink:title=" ">
<path fill="none" stroke="#63b8ff" d="M141.59,-22C149.6,-22 157.7,-22 165.57,-22"/>
<polygon fill="#63b8ff" stroke="#63b8ff" points="141.86,-18.5 131.86,-22 141.86,-25.5 141.86,-18.5"/>
</a>
</g>
</g>
<!-- Node2 -->
<g id="Node000002" class="node">
<title>Node2</title>
<g id="a_Node000002"><a xlink:href="structneforce_1_1hashtable__iterator.html" target="_top" xlink:title="哈希表迭代器">
<polygon fill="white" stroke="#666666" points="429.75,-44 332,-44 332,0 429.75,0 429.75,-44"/>
<text text-anchor="start" x="340" y="-30.5" font-family="Helvetica,sans-Serif" font-size="10.00">neforce::hashtable</text>
<text text-anchor="start" x="340" y="-18.5" font-family="Helvetica,sans-Serif" font-size="10.00">_iterator&lt; IsConst,</text>
<text text-anchor="middle" x="380.88" y="-6.5" font-family="Helvetica,sans-Serif" font-size="10.00"> HashTable &gt;</text>
</a>
</g>
</g>
<!-- Node1&#45;&gt;Node2 -->
<g id="edge561_Node000001_Node000002" class="edge">
<title>Node1&#45;&gt;Node2</title>
<g id="a_edge561_Node000001_Node000002"><a xlink:title=" ">
<path fill="none" stroke="#63b8ff" d="M307.86,-22C315.96,-22 324.02,-22 331.67,-22"/>
<polygon fill="#63b8ff" stroke="#63b8ff" points="307.94,-18.5 297.94,-22 307.94,-25.5 307.94,-18.5"/>
</a>
</g>
</g>
</g>
</svg>
