<?xml version="1.0" encoding="UTF-8" standalone="no"?>
<!DOCTYPE svg PUBLIC "-//W3C//DTD SVG 1.1//EN"
 "http://www.w3.org/Graphics/SVG/1.1/DTD/svg11.dtd">
<!-- Generated by graphviz version 12.2.1 (20241206.2353)
 -->
<!-- Title: any.hpp Pages: 1 -->
<svg width="695pt" height="912pt"
 viewBox="0.00 0.00 695.20 912.00" xmlns="http://www.w3.org/2000/svg" xmlns:xlink="http://www.w3.org/1999/xlink">
<g id="graph0" class="graph" transform="scale(1 1) rotate(0) translate(4 908)">
<title>any.hpp</title>
<!-- Node1 -->
<g id="Node000001" class="node">
<title>Node1</title>
<g id="a_Node000001"><a xlink:title="类型擦除容器">
<polygon fill="#999999" stroke="#666666" points="310.08,-904 260.33,-904 260.33,-884 310.08,-884 310.08,-904"/>
<text text-anchor="middle" x="285.2" y="-890.5" font-family="Helvetica,sans-Serif" font-size="10.00">any.hpp</text>
</a>
</g>
</g>
<!-- Node2 -->
<g id="Node000002" class="node">
<title>Node2</title>
<g id="a_Node000002"><a xlink:href="exception_8hpp.html" target="_top" xlink:title="异常处理框架">
<polygon fill="white" stroke="#666666" points="278.33,-780 158.08,-780 158.08,-748 278.33,-748 278.33,-780"/>
<text text-anchor="start" x="166.08" y="-766.5" font-family="Helvetica,sans-Serif" font-size="10.00">NeForce/core/exception</text>
<text text-anchor="middle" x="218.2" y="-754.5" font-family="Helvetica,sans-Serif" font-size="10.00">/exception.hpp</text>
</a>
</g>
</g>
<!-- Node1&#45;&gt;Node2 -->
<g id="edge1_Node000001_Node000002" class="edge">
<title>Node1&#45;&gt;Node2</title>
<g id="a_edge1_Node000001_Node000002"><a xlink:title=" ">
<path fill="none" stroke="#63b8ff" d="M280.38,-883.79C270.27,-864.48 246.54,-819.14 231.49,-790.39"/>
<polygon fill="#63b8ff" stroke="#63b8ff" points="234.64,-788.85 226.9,-781.61 228.43,-792.1 234.64,-788.85"/>
</a>
</g>
</g>
<!-- Node9 -->
<g id="Node000009" class="node">
<title>Node9</title>
<g id="a_Node000009"><a xlink:href="string__view_8hpp.html" target="_top" xlink:title="字符串视图类型别名和实用函数">
<polygon fill="white" stroke="#666666" points="390.33,-848 288.08,-848 288.08,-816 390.33,-816 390.33,-848"/>
<text text-anchor="start" x="296.08" y="-834.5" font-family="Helvetica,sans-Serif" font-size="10.00">NeForce/core/string</text>
<text text-anchor="middle" x="339.2" y="-822.5" font-family="Helvetica,sans-Serif" font-size="10.00">/string_view.hpp</text>
</a>
</g>
</g>
<!-- Node1&#45;&gt;Node9 -->
<g id="edge8_Node000001_Node000009" class="edge">
<title>Node1&#45;&gt;Node9</title>
<g id="a_edge8_Node000001_Node000009"><a xlink:title=" ">
<path fill="none" stroke="#63b8ff" d="M293.64,-883.62C300.18,-876.36 309.54,-865.96 318.07,-856.48"/>
<polygon fill="#63b8ff" stroke="#63b8ff" points="320.47,-859.04 324.56,-849.27 315.27,-854.36 320.47,-859.04"/>
</a>
</g>
</g>
<!-- Node3 -->
<g id="Node000003" class="node">
<title>Node3</title>
<g id="a_Node000003"><a xlink:href="memory_8hpp.html" target="_top" xlink:title="内存操作函数">
<polygon fill="white" stroke="#666666" points="205.95,-576 92.45,-576 92.45,-544 205.95,-544 205.95,-576"/>
<text text-anchor="start" x="100.45" y="-562.5" font-family="Helvetica,sans-Serif" font-size="10.00">NeForce/core/memory</text>
<text text-anchor="middle" x="149.2" y="-550.5" font-family="Helvetica,sans-Serif" font-size="10.00">/memory.hpp</text>
</a>
</g>
</g>
<!-- Node2&#45;&gt;Node3 -->
<g id="edge2_Node000002_Node000003" class="edge">
<title>Node2&#45;&gt;Node3</title>
<g id="a_edge2_Node000002_Node000003"><a xlink:title=" ">
<path fill="none" stroke="#63b8ff" d="M213.02,-747.82C201.3,-713.53 172.69,-629.76 158.09,-587.01"/>
<polygon fill="#63b8ff" stroke="#63b8ff" points="161.48,-586.12 154.94,-577.79 154.86,-588.39 161.48,-586.12"/>
</a>
</g>
</g>
<!-- Node4 -->
<g id="Node000004" class="node">
<title>Node4</title>
<g id="a_Node000004"><a xlink:href="type__traits_8hpp.html" target="_top" xlink:title="类型萃取">
<polygon fill="white" stroke="#666666" points="426.58,-236 313.83,-236 313.83,-204 426.58,-204 426.58,-236"/>
<text text-anchor="start" x="321.83" y="-222.5" font-family="Helvetica,sans-Serif" font-size="10.00">NeForce/core/typeinfo</text>
<text text-anchor="middle" x="370.2" y="-210.5" font-family="Helvetica,sans-Serif" font-size="10.00">/type_traits.hpp</text>
</a>
</g>
</g>
<!-- Node3&#45;&gt;Node4 -->
<g id="edge3_Node000003_Node000004" class="edge">
<title>Node3&#45;&gt;Node4</title>
<g id="a_edge3_Node000003_Node000004"><a xlink:title=" ">
<path fill="none" stroke="#63b8ff" d="M110.58,-543.67C67.03,-523.53 2.2,-483.71 2.2,-425 2.2,-425 2.2,-425 2.2,-355 2.2,-317.16 -6.61,-297.67 21.2,-272 60.97,-235.29 212.19,-224.96 302.01,-222.08"/>
<polygon fill="#63b8ff" stroke="#63b8ff" points="302.04,-225.58 311.94,-221.79 301.84,-218.59 302.04,-225.58"/>
</a>
</g>
</g>
<!-- Node5 -->
<g id="Node000005" class="node">
<title>Node5</title>
<g id="a_Node000005"><a xlink:href="types_8hpp.html" target="_top" xlink:title="基本类型别名">
<polygon fill="white" stroke="#666666" points="532.58,-168 419.83,-168 419.83,-136 532.58,-136 532.58,-168"/>
<text text-anchor="start" x="427.83" y="-154.5" font-family="Helvetica,sans-Serif" font-size="10.00">NeForce/core/typeinfo</text>
<text text-anchor="middle" x="476.2" y="-142.5" font-family="Helvetica,sans-Serif" font-size="10.00">/types.hpp</text>
</a>
</g>
</g>
<!-- Node4&#45;&gt;Node5 -->
<g id="edge4_Node000004_Node000005" class="edge">
<title>Node4&#45;&gt;Node5</title>
<g id="a_edge4_Node000004_Node000005"><a xlink:title=" ">
<path fill="none" stroke="#63b8ff" d="M395.05,-203.53C409.01,-194.84 426.63,-183.86 441.89,-174.37"/>
<polygon fill="#63b8ff" stroke="#63b8ff" points="443.58,-177.43 450.22,-169.18 439.88,-171.49 443.58,-177.43"/>
</a>
</g>
</g>
<!-- Node6 -->
<g id="Node000006" class="node">
<title>Node6</title>
<g id="a_Node000006"><a xlink:href="c_09_09config_8hpp.html" target="_top" xlink:title="核心配置头文件">
<polygon fill="white" stroke="#666666" points="595.45,-100 490.95,-100 490.95,-68 595.45,-68 595.45,-100"/>
<text text-anchor="start" x="498.95" y="-86.5" font-family="Helvetica,sans-Serif" font-size="10.00">NeForce/core/config</text>
<text text-anchor="middle" x="543.2" y="-74.5" font-family="Helvetica,sans-Serif" font-size="10.00">/c++config.hpp</text>
</a>
</g>
</g>
<!-- Node5&#45;&gt;Node6 -->
<g id="edge5_Node000005_Node000006" class="edge">
<title>Node5&#45;&gt;Node6</title>
<g id="a_edge5_Node000005_Node000006"><a xlink:title=" ">
<path fill="none" stroke="#63b8ff" d="M491.74,-135.69C500.03,-127.53 510.4,-117.31 519.65,-108.2"/>
<polygon fill="#63b8ff" stroke="#63b8ff" points="522,-110.8 526.67,-101.29 517.09,-105.81 522,-110.8"/>
</a>
</g>
</g>
<!-- Node7 -->
<g id="Node000007" class="node">
<title>Node7</title>
<g id="a_Node000007"><a xlink:title=" ">
<polygon fill="#e0e0e0" stroke="#999999" points="520.33,-26 472.08,-26 472.08,-6 520.33,-6 520.33,-26"/>
<text text-anchor="middle" x="496.2" y="-12.5" font-family="Helvetica,sans-Serif" font-size="10.00">cassert</text>
</a>
</g>
</g>
<!-- Node6&#45;&gt;Node7 -->
<g id="edge6_Node000006_Node000007" class="edge">
<title>Node6&#45;&gt;Node7</title>
<g id="a_edge6_Node000006_Node000007"><a xlink:title=" ">
<path fill="none" stroke="#63b8ff" d="M532.3,-67.69C525.47,-58.1 516.62,-45.67 509.39,-35.52"/>
<polygon fill="#63b8ff" stroke="#63b8ff" points="512.37,-33.66 503.71,-27.55 506.66,-37.73 512.37,-33.66"/>
</a>
</g>
</g>
<!-- Node8 -->
<g id="Node000008" class="node">
<title>Node8</title>
<g id="a_Node000008"><a xlink:href="version_8hpp_source.html" target="_top" xlink:title=" ">
<polygon fill="white" stroke="#666666" points="642.45,-32 537.95,-32 537.95,0 642.45,0 642.45,-32"/>
<text text-anchor="start" x="545.95" y="-18.5" font-family="Helvetica,sans-Serif" font-size="10.00">NeForce/core/config</text>
<text text-anchor="middle" x="590.2" y="-6.5" font-family="Helvetica,sans-Serif" font-size="10.00">/version.hpp</text>
</a>
</g>
</g>
<!-- Node6&#45;&gt;Node8 -->
<g id="edge7_Node000006_Node000008" class="edge">
<title>Node6&#45;&gt;Node8</title>
<g id="a_edge7_Node000006_Node000008"><a xlink:title=" ">
<path fill="none" stroke="#63b8ff" d="M554.1,-67.69C559.62,-59.95 566.45,-50.35 572.68,-41.6"/>
<polygon fill="#63b8ff" stroke="#63b8ff" points="575.53,-43.63 578.48,-33.46 569.83,-39.57 575.53,-43.63"/>
</a>
</g>
</g>
<!-- Node10 -->
<g id="Node000010" class="node">
<title>Node10</title>
<g id="a_Node000010"><a xlink:href="basic__string__view_8hpp.html" target="_top" xlink:title="字符串视图容器">
<polygon fill="white" stroke="#666666" points="414.7,-780 299.7,-780 299.7,-748 414.7,-748 414.7,-780"/>
<text text-anchor="start" x="307.7" y="-766.5" font-family="Helvetica,sans-Serif" font-size="10.00">NeForce/core/string</text>
<text text-anchor="middle" x="357.2" y="-754.5" font-family="Helvetica,sans-Serif" font-size="10.00">/basic_string_view.hpp</text>
</a>
</g>
</g>
<!-- Node9&#45;&gt;Node10 -->
<g id="edge9_Node000009_Node000010" class="edge">
<title>Node9&#45;&gt;Node10</title>
<g id="a_edge9_Node000009_Node000010"><a xlink:title=" ">
<path fill="none" stroke="#63b8ff" d="M343.38,-815.69C345.35,-808.45 347.77,-799.58 350.03,-791.3"/>
<polygon fill="#63b8ff" stroke="#63b8ff" points="353.4,-792.25 352.65,-781.68 346.64,-790.41 353.4,-792.25"/>
</a>
</g>
</g>
<!-- Node11 -->
<g id="Node000011" class="node">
<title>Node11</title>
<g id="a_Node000011"><a xlink:href="iiterator_8hpp.html" target="_top" xlink:title="迭代器接口">
<polygon fill="white" stroke="#666666" points="316.08,-644 200.33,-644 200.33,-612 316.08,-612 316.08,-644"/>
<text text-anchor="start" x="208.33" y="-630.5" font-family="Helvetica,sans-Serif" font-size="10.00">NeForce/core/interface</text>
<text text-anchor="middle" x="258.2" y="-618.5" font-family="Helvetica,sans-Serif" font-size="10.00">/iiterator.hpp</text>
</a>
</g>
</g>
<!-- Node10&#45;&gt;Node11 -->
<g id="edge10_Node000010_Node000011" class="edge">
<title>Node10&#45;&gt;Node11</title>
<g id="a_edge10_Node000010_Node000011"><a xlink:title=" ">
<path fill="none" stroke="#63b8ff" d="M345.85,-747.63C328.76,-724.51 296.3,-680.57 276.04,-653.14"/>
<polygon fill="#63b8ff" stroke="#63b8ff" points="279.08,-651.37 270.33,-645.41 273.45,-655.53 279.08,-651.37"/>
</a>
</g>
</g>
<!-- Node14 -->
<g id="Node000014" class="node">
<title>Node14</title>
<g id="a_Node000014"><a xlink:href="char__traits_8hpp.html" target="_top" xlink:title="字符特征模板">
<polygon fill="white" stroke="#666666" points="448.33,-712 346.08,-712 346.08,-680 448.33,-680 448.33,-712"/>
<text text-anchor="start" x="354.08" y="-698.5" font-family="Helvetica,sans-Serif" font-size="10.00">NeForce/core/string</text>
<text text-anchor="middle" x="397.2" y="-686.5" font-family="Helvetica,sans-Serif" font-size="10.00">/char_traits.hpp</text>
</a>
</g>
</g>
<!-- Node10&#45;&gt;Node14 -->
<g id="edge14_Node000010_Node000014" class="edge">
<title>Node10&#45;&gt;Node14</title>
<g id="a_edge14_Node000010_Node000014"><a xlink:title=" ">
<path fill="none" stroke="#63b8ff" d="M366.48,-747.69C371.12,-740.03 376.86,-730.56 382.12,-721.88"/>
<polygon fill="#63b8ff" stroke="#63b8ff" points="385,-723.89 387.19,-713.52 379.01,-720.26 385,-723.89"/>
</a>
</g>
</g>
<!-- Node29 -->
<g id="Node000029" class="node">
<title>Node29</title>
<g id="a_Node000029"><a xlink:href="char__types_8hpp.html" target="_top" xlink:title="字符类型分类和转换函数">
<polygon fill="white" stroke="#666666" points="658.33,-712 556.08,-712 556.08,-680 658.33,-680 658.33,-712"/>
<text text-anchor="start" x="564.08" y="-698.5" font-family="Helvetica,sans-Serif" font-size="10.00">NeForce/core/string</text>
<text text-anchor="middle" x="607.2" y="-686.5" font-family="Helvetica,sans-Serif" font-size="10.00">/char_types.hpp</text>
</a>
</g>
</g>
<!-- Node10&#45;&gt;Node29 -->
<g id="edge37_Node000010_Node000029" class="edge">
<title>Node10&#45;&gt;Node29</title>
<g id="a_edge37_Node000010_Node000029"><a xlink:title=" ">
<path fill="none" stroke="#63b8ff" d="M415.19,-747.69C454.08,-737.42 505.27,-723.91 545.01,-713.42"/>
<polygon fill="#63b8ff" stroke="#63b8ff" points="545.66,-716.87 554.43,-710.93 543.87,-710.1 545.66,-716.87"/>
</a>
</g>
</g>
<!-- Node12 -->
<g id="Node000012" class="node">
<title>Node12</title>
<g id="a_Node000012"><a xlink:href="icommon_8hpp.html" target="_top" xlink:title="基本接口基类">
<polygon fill="white" stroke="#666666" points="237.08,-372 121.33,-372 121.33,-340 237.08,-340 237.08,-372"/>
<text text-anchor="start" x="129.33" y="-358.5" font-family="Helvetica,sans-Serif" font-size="10.00">NeForce/core/interface</text>
<text text-anchor="middle" x="179.2" y="-346.5" font-family="Helvetica,sans-Serif" font-size="10.00">/icommon.hpp</text>
</a>
</g>
</g>
<!-- Node11&#45;&gt;Node12 -->
<g id="edge11_Node000011_Node000012" class="edge">
<title>Node11&#45;&gt;Node12</title>
<g id="a_edge11_Node000011_Node000012"><a xlink:title=" ">
<path fill="none" stroke="#63b8ff" d="M253.73,-611.71C240.78,-567.45 203.14,-438.82 186.86,-383.17"/>
<polygon fill="#63b8ff" stroke="#63b8ff" points="190.32,-382.52 184.15,-373.91 183.6,-384.49 190.32,-382.52"/>
</a>
</g>
</g>
<!-- Node13 -->
<g id="Node000013" class="node">
<title>Node13</title>
<g id="a_Node000013"><a xlink:href="hash_8hpp.html" target="_top" xlink:title="哈希函数库">
<polygon fill="white" stroke="#666666" points="150.33,-304 30.08,-304 30.08,-272 150.33,-272 150.33,-304"/>
<text text-anchor="start" x="38.08" y="-290.5" font-family="Helvetica,sans-Serif" font-size="10.00">NeForce/core/functional</text>
<text text-anchor="middle" x="90.2" y="-278.5" font-family="Helvetica,sans-Serif" font-size="10.00">/hash.hpp</text>
</a>
</g>
</g>
<!-- Node12&#45;&gt;Node13 -->
<g id="edge12_Node000012_Node000013" class="edge">
<title>Node12&#45;&gt;Node13</title>
<g id="a_edge12_Node000012_Node000013"><a xlink:title=" ">
<path fill="none" stroke="#63b8ff" d="M158.56,-339.69C147.18,-331.26 132.85,-320.63 120.26,-311.29"/>
<polygon fill="#63b8ff" stroke="#63b8ff" points="122.37,-308.5 112.26,-305.35 118.2,-314.12 122.37,-308.5"/>
</a>
</g>
</g>
<!-- Node13&#45;&gt;Node4 -->
<g id="edge13_Node000013_Node000004" class="edge">
<title>Node13&#45;&gt;Node4</title>
<g id="a_edge13_Node000013_Node000004"><a xlink:title=" ">
<path fill="none" stroke="#63b8ff" d="M150.61,-272.76C195.32,-262.22 256.23,-247.86 302.57,-236.94"/>
<polygon fill="#63b8ff" stroke="#63b8ff" points="303.31,-240.36 312.24,-234.66 301.7,-233.55 303.31,-240.36"/>
</a>
</g>
</g>
<!-- Node15 -->
<g id="Node000015" class="node">
<title>Node15</title>
<g id="a_Node000015"><a xlink:href="compare_8hpp.html" target="_top" xlink:title="比较算法">
<polygon fill="white" stroke="#666666" points="456.2,-644 338.2,-644 338.2,-612 456.2,-612 456.2,-644"/>
<text text-anchor="start" x="346.2" y="-630.5" font-family="Helvetica,sans-Serif" font-size="10.00">NeForce/core/algorithm</text>
<text text-anchor="middle" x="397.2" y="-618.5" font-family="Helvetica,sans-Serif" font-size="10.00">/compare.hpp</text>
</a>
</g>
</g>
<!-- Node14&#45;&gt;Node15 -->
<g id="edge15_Node000014_Node000015" class="edge">
<title>Node14&#45;&gt;Node15</title>
<g id="a_edge15_Node000014_Node000015"><a xlink:title=" ">
<path fill="none" stroke="#63b8ff" d="M397.2,-679.69C397.2,-672.53 397.2,-663.79 397.2,-655.59"/>
<polygon fill="#63b8ff" stroke="#63b8ff" points="400.7,-655.74 397.2,-645.74 393.7,-655.74 400.7,-655.74"/>
</a>
</g>
</g>
<!-- Node28 -->
<g id="Node000028" class="node">
<title>Node28</title>
<g id="a_Node000028"><a xlink:href="numeric__traits_8hpp.html" target="_top" xlink:title="数值特征">
<polygon fill="white" stroke="#666666" points="574.58,-236 461.83,-236 461.83,-204 574.58,-204 574.58,-236"/>
<text text-anchor="start" x="469.83" y="-222.5" font-family="Helvetica,sans-Serif" font-size="10.00">NeForce/core/numeric</text>
<text text-anchor="middle" x="518.2" y="-210.5" font-family="Helvetica,sans-Serif" font-size="10.00">/numeric_traits.hpp</text>
</a>
</g>
</g>
<!-- Node14&#45;&gt;Node28 -->
<g id="edge35_Node000014_Node000028" class="edge">
<title>Node14&#45;&gt;Node28</title>
<g id="a_edge35_Node000014_Node000028"><a xlink:title=" ">
<path fill="none" stroke="#63b8ff" d="M448.81,-690.41C522.53,-680.7 649.2,-650.93 649.2,-561 649.2,-561 649.2,-561 649.2,-423 649.2,-351.11 635.5,-328.62 591.2,-272 582.11,-260.37 569.64,-250.33 557.59,-242.3"/>
<polygon fill="#63b8ff" stroke="#63b8ff" points="559.68,-239.48 549.36,-237.11 555.95,-245.4 559.68,-239.48"/>
</a>
</g>
</g>
<!-- Node15&#45;&gt;Node3 -->
<g id="edge27_Node000015_Node000003" class="edge">
<title>Node15&#45;&gt;Node3</title>
<g id="a_edge27_Node000015_Node000003"><a xlink:title=" ">
<path fill="none" stroke="#63b8ff" d="M339.06,-611.53C302.57,-601.82 255.37,-589.25 217.16,-579.09"/>
<polygon fill="#63b8ff" stroke="#63b8ff" points="218.15,-575.73 207.59,-576.54 216.35,-582.49 218.15,-575.73"/>
</a>
</g>
</g>
<!-- Node16 -->
<g id="Node000016" class="node">
<title>Node16</title>
<g id="a_Node000016"><a xlink:title=" ">
<polygon fill="#e0e0e0" stroke="#999999" points="550.33,-570 478.08,-570 478.08,-550 550.33,-550 550.33,-570"/>
<text text-anchor="middle" x="514.2" y="-556.5" font-family="Helvetica,sans-Serif" font-size="10.00">initializer_list</text>
</a>
</g>
</g>
<!-- Node15&#45;&gt;Node16 -->
<g id="edge16_Node000015_Node000016" class="edge">
<title>Node15&#45;&gt;Node16</title>
<g id="a_edge16_Node000015_Node000016"><a xlink:title=" ">
<path fill="none" stroke="#63b8ff" d="M424.63,-611.53C443.58,-600.84 468.65,-586.7 487.45,-576.09"/>
<polygon fill="#63b8ff" stroke="#63b8ff" points="489.12,-579.17 496.11,-571.2 485.68,-573.07 489.12,-579.17"/>
</a>
</g>
</g>
<!-- Node17 -->
<g id="Node000017" class="node">
<title>Node17</title>
<g id="a_Node000017"><a xlink:href="search_8hpp.html" target="_top" xlink:title="查找和搜索算法">
<polygon fill="white" stroke="#666666" points="460.2,-576 342.2,-576 342.2,-544 460.2,-544 460.2,-576"/>
<text text-anchor="start" x="350.2" y="-562.5" font-family="Helvetica,sans-Serif" font-size="10.00">NeForce/core/algorithm</text>
<text text-anchor="middle" x="401.2" y="-550.5" font-family="Helvetica,sans-Serif" font-size="10.00">/search.hpp</text>
</a>
</g>
</g>
<!-- Node15&#45;&gt;Node17 -->
<g id="edge17_Node000015_Node000017" class="edge">
<title>Node15&#45;&gt;Node17</title>
<g id="a_edge17_Node000015_Node000017"><a xlink:title=" ">
<path fill="none" stroke="#63b8ff" d="M398.13,-611.69C398.56,-604.53 399.09,-595.79 399.59,-587.59"/>
<polygon fill="#63b8ff" stroke="#63b8ff" points="403.08,-587.93 400.19,-577.74 396.09,-587.51 403.08,-587.93"/>
</a>
</g>
</g>
<!-- Node24 -->
<g id="Node000024" class="node">
<title>Node24</title>
<g id="a_Node000024"><a xlink:href="pair_8hpp.html" target="_top" xlink:title="键值对">
<polygon fill="white" stroke="#666666" points="363.95,-440 262.45,-440 262.45,-408 363.95,-408 363.95,-440"/>
<text text-anchor="start" x="270.45" y="-426.5" font-family="Helvetica,sans-Serif" font-size="10.00">NeForce/core/utility</text>
<text text-anchor="middle" x="313.2" y="-414.5" font-family="Helvetica,sans-Serif" font-size="10.00">/pair.hpp</text>
</a>
</g>
</g>
<!-- Node15&#45;&gt;Node24 -->
<g id="edge28_Node000015_Node000024" class="edge">
<title>Node15&#45;&gt;Node24</title>
<g id="a_edge28_Node000015_Node000024"><a xlink:title=" ">
<path fill="none" stroke="#63b8ff" d="M369.31,-611.68C356.18,-602.97 341.6,-590.84 333.2,-576 311.13,-536.99 309.52,-483.44 310.95,-451.71"/>
<polygon fill="#63b8ff" stroke="#63b8ff" points="314.44,-452.01 311.55,-441.82 307.45,-451.59 314.44,-452.01"/>
</a>
</g>
</g>
<!-- Node18 -->
<g id="Node000018" class="node">
<title>Node18</title>
<g id="a_Node000018"><a xlink:href="functor_8hpp.html" target="_top" xlink:title="仿函数">
<polygon fill="white" stroke="#666666" points="461.33,-508 341.08,-508 341.08,-476 461.33,-476 461.33,-508"/>
<text text-anchor="start" x="349.08" y="-494.5" font-family="Helvetica,sans-Serif" font-size="10.00">NeForce/core/functional</text>
<text text-anchor="middle" x="401.2" y="-482.5" font-family="Helvetica,sans-Serif" font-size="10.00">/functor.hpp</text>
</a>
</g>
</g>
<!-- Node17&#45;&gt;Node18 -->
<g id="edge18_Node000017_Node000018" class="edge">
<title>Node17&#45;&gt;Node18</title>
<g id="a_edge18_Node000017_Node000018"><a xlink:title=" ">
<path fill="none" stroke="#63b8ff" d="M401.2,-543.69C401.2,-536.53 401.2,-527.79 401.2,-519.59"/>
<polygon fill="#63b8ff" stroke="#63b8ff" points="404.7,-519.74 401.2,-509.74 397.7,-519.74 404.7,-519.74"/>
</a>
</g>
</g>
<!-- Node19 -->
<g id="Node000019" class="node">
<title>Node19</title>
<g id="a_Node000019"><a xlink:href="reverse__iterator_8hpp.html" target="_top" xlink:title="反向迭代器">
<polygon fill="white" stroke="#666666" points="587.33,-508 479.08,-508 479.08,-476 587.33,-476 587.33,-508"/>
<text text-anchor="start" x="487.08" y="-494.5" font-family="Helvetica,sans-Serif" font-size="10.00">NeForce/core/iterator</text>
<text text-anchor="middle" x="533.2" y="-482.5" font-family="Helvetica,sans-Serif" font-size="10.00">/reverse_iterator.hpp</text>
</a>
</g>
</g>
<!-- Node17&#45;&gt;Node19 -->
<g id="edge20_Node000017_Node000019" class="edge">
<title>Node17&#45;&gt;Node19</title>
<g id="a_edge20_Node000017_Node000019"><a xlink:title=" ">
<path fill="none" stroke="#63b8ff" d="M432.15,-543.53C450.11,-534.55 472.94,-523.13 492.36,-513.42"/>
<polygon fill="#63b8ff" stroke="#63b8ff" points="493.71,-516.66 501.09,-509.05 490.58,-510.4 493.71,-516.66"/>
</a>
</g>
</g>
<!-- Node18&#45;&gt;Node4 -->
<g id="edge19_Node000018_Node000004" class="edge">
<title>Node18&#45;&gt;Node4</title>
<g id="a_edge19_Node000018_Node000004"><a xlink:title=" ">
<path fill="none" stroke="#63b8ff" d="M408.28,-475.58C424.16,-438.61 458.85,-342.78 427.2,-272 422.23,-260.88 413.51,-251.19 404.36,-243.32"/>
<polygon fill="#63b8ff" stroke="#63b8ff" points="406.76,-240.76 396.75,-237.29 402.42,-246.25 406.76,-240.76"/>
</a>
</g>
</g>
<!-- Node20 -->
<g id="Node000020" class="node">
<title>Node20</title>
<g id="a_Node000020"><a xlink:href="iterator_8hpp.html" target="_top" xlink:title="迭代器操作算法">
<polygon fill="white" stroke="#666666" points="592.2,-440 474.2,-440 474.2,-408 592.2,-408 592.2,-440"/>
<text text-anchor="start" x="482.2" y="-426.5" font-family="Helvetica,sans-Serif" font-size="10.00">NeForce/core/algorithm</text>
<text text-anchor="middle" x="533.2" y="-414.5" font-family="Helvetica,sans-Serif" font-size="10.00">/iterator.hpp</text>
</a>
</g>
</g>
<!-- Node19&#45;&gt;Node20 -->
<g id="edge21_Node000019_Node000020" class="edge">
<title>Node19&#45;&gt;Node20</title>
<g id="a_edge21_Node000019_Node000020"><a xlink:title=" ">
<path fill="none" stroke="#63b8ff" d="M533.2,-475.69C533.2,-468.53 533.2,-459.79 533.2,-451.59"/>
<polygon fill="#63b8ff" stroke="#63b8ff" points="536.7,-451.74 533.2,-441.74 529.7,-451.74 536.7,-451.74"/>
</a>
</g>
</g>
<!-- Node21 -->
<g id="Node000021" class="node">
<title>Node21</title>
<g id="a_Node000021"><a xlink:href="breakpoint_8hpp.html" target="_top" xlink:title="调试断点和断言工具">
<polygon fill="white" stroke="#666666" points="671.33,-168 551.08,-168 551.08,-136 671.33,-136 671.33,-168"/>
<text text-anchor="start" x="559.08" y="-154.5" font-family="Helvetica,sans-Serif" font-size="10.00">NeForce/core/exception</text>
<text text-anchor="middle" x="611.2" y="-142.5" font-family="Helvetica,sans-Serif" font-size="10.00">/breakpoint.hpp</text>
</a>
</g>
</g>
<!-- Node20&#45;&gt;Node21 -->
<g id="edge22_Node000020_Node000021" class="edge">
<title>Node20&#45;&gt;Node21</title>
<g id="a_edge22_Node000020_Node000021"><a xlink:title=" ">
<path fill="none" stroke="#63b8ff" d="M558.9,-407.58C571.16,-398.78 584.75,-386.59 592.2,-372 624.35,-309.07 619.93,-222.61 615.03,-179.57"/>
<polygon fill="#63b8ff" stroke="#63b8ff" points="618.53,-179.39 613.82,-169.9 611.59,-180.26 618.53,-179.39"/>
</a>
</g>
</g>
<!-- Node22 -->
<g id="Node000022" class="node">
<title>Node22</title>
<g id="a_Node000022"><a xlink:href="concepts_8hpp.html" target="_top" xlink:title="概念和类型约束">
<polygon fill="white" stroke="#666666" points="583.58,-372 470.83,-372 470.83,-340 583.58,-340 583.58,-372"/>
<text text-anchor="start" x="478.83" y="-358.5" font-family="Helvetica,sans-Serif" font-size="10.00">NeForce/core/typeinfo</text>
<text text-anchor="middle" x="527.2" y="-346.5" font-family="Helvetica,sans-Serif" font-size="10.00">/concepts.hpp</text>
</a>
</g>
</g>
<!-- Node20&#45;&gt;Node22 -->
<g id="edge24_Node000020_Node000022" class="edge">
<title>Node20&#45;&gt;Node22</title>
<g id="a_edge24_Node000020_Node000022"><a xlink:title=" ">
<path fill="none" stroke="#63b8ff" d="M531.81,-407.69C531.16,-400.53 530.36,-391.79 529.62,-383.59"/>
<polygon fill="#63b8ff" stroke="#63b8ff" points="533.11,-383.37 528.72,-373.73 526.14,-384.01 533.11,-383.37"/>
</a>
</g>
</g>
<!-- Node21&#45;&gt;Node6 -->
<g id="edge23_Node000021_Node000006" class="edge">
<title>Node21&#45;&gt;Node6</title>
<g id="a_edge23_Node000021_Node000006"><a xlink:title=" ">
<path fill="none" stroke="#63b8ff" d="M595.43,-135.69C587.02,-127.53 576.5,-117.31 567.1,-108.2"/>
<polygon fill="#63b8ff" stroke="#63b8ff" points="569.59,-105.73 559.97,-101.28 564.71,-110.76 569.59,-105.73"/>
</a>
</g>
</g>
<!-- Node23 -->
<g id="Node000023" class="node">
<title>Node23</title>
<g id="a_Node000023"><a xlink:href="iterator__traits_8hpp.html" target="_top" xlink:title="迭代器萃取和指针萃取">
<polygon fill="white" stroke="#666666" points="582.33,-304 474.08,-304 474.08,-272 582.33,-272 582.33,-304"/>
<text text-anchor="start" x="482.08" y="-290.5" font-family="Helvetica,sans-Serif" font-size="10.00">NeForce/core/iterator</text>
<text text-anchor="middle" x="528.2" y="-278.5" font-family="Helvetica,sans-Serif" font-size="10.00">/iterator_traits.hpp</text>
</a>
</g>
</g>
<!-- Node22&#45;&gt;Node23 -->
<g id="edge25_Node000022_Node000023" class="edge">
<title>Node22&#45;&gt;Node23</title>
<g id="a_edge25_Node000022_Node000023"><a xlink:title=" ">
<path fill="none" stroke="#63b8ff" d="M527.43,-339.69C527.54,-332.53 527.67,-323.79 527.8,-315.59"/>
<polygon fill="#63b8ff" stroke="#63b8ff" points="531.3,-315.79 527.95,-305.74 524.3,-315.68 531.3,-315.79"/>
</a>
</g>
</g>
<!-- Node23&#45;&gt;Node4 -->
<g id="edge26_Node000023_Node000004" class="edge">
<title>Node23&#45;&gt;Node4</title>
<g id="a_edge26_Node000023_Node000004"><a xlink:title=" ">
<path fill="none" stroke="#63b8ff" d="M491.16,-271.53C469.25,-262.37 441.27,-250.69 417.75,-240.86"/>
<polygon fill="#63b8ff" stroke="#63b8ff" points="419.26,-237.7 408.68,-237.07 416.56,-244.16 419.26,-237.7"/>
</a>
</g>
</g>
<!-- Node24&#45;&gt;Node12 -->
<g id="edge29_Node000024_Node000012" class="edge">
<title>Node24&#45;&gt;Node12</title>
<g id="a_edge29_Node000024_Node000012"><a xlink:title=" ">
<path fill="none" stroke="#63b8ff" d="M281.78,-407.53C263.56,-398.55 240.38,-387.13 220.66,-377.42"/>
<polygon fill="#63b8ff" stroke="#63b8ff" points="222.3,-374.32 211.78,-373.05 219.2,-380.6 222.3,-374.32"/>
</a>
</g>
</g>
<!-- Node25 -->
<g id="Node000025" class="node">
<title>Node25</title>
<g id="a_Node000025"><a xlink:href="integer__sequence_8hpp.html" target="_top" xlink:title="整数序列工具">
<polygon fill="white" stroke="#666666" points="418.33,-304 304.08,-304 304.08,-272 418.33,-272 418.33,-304"/>
<text text-anchor="start" x="312.08" y="-290.5" font-family="Helvetica,sans-Serif" font-size="10.00">NeForce/core/utility</text>
<text text-anchor="middle" x="361.2" y="-278.5" font-family="Helvetica,sans-Serif" font-size="10.00">/integer_sequence.hpp</text>
</a>
</g>
</g>
<!-- Node24&#45;&gt;Node25 -->
<g id="edge30_Node000024_Node000025" class="edge">
<title>Node24&#45;&gt;Node25</title>
<g id="a_edge30_Node000024_Node000025"><a xlink:title=" ">
<path fill="none" stroke="#63b8ff" d="M323.59,-407.51C329.77,-397.7 337.33,-384.53 342.2,-372 349.32,-353.71 354.16,-332.06 357.18,-315.47"/>
<polygon fill="#63b8ff" stroke="#63b8ff" points="360.58,-316.33 358.81,-305.88 353.68,-315.16 360.58,-316.33"/>
</a>
</g>
</g>
<!-- Node26 -->
<g id="Node000026" class="node">
<title>Node26</title>
<g id="a_Node000026"><a xlink:href="reference__wrapper_8hpp.html" target="_top" xlink:title="引用包装器">
<polygon fill="white" stroke="#666666" points="286.2,-304 168.2,-304 168.2,-272 286.2,-272 286.2,-304"/>
<text text-anchor="start" x="176.2" y="-290.5" font-family="Helvetica,sans-Serif" font-size="10.00">NeForce/core/utility</text>
<text text-anchor="middle" x="227.2" y="-278.5" font-family="Helvetica,sans-Serif" font-size="10.00">/reference_wrapper.hpp</text>
</a>
</g>
</g>
<!-- Node24&#45;&gt;Node26 -->
<g id="edge32_Node000024_Node000026" class="edge">
<title>Node24&#45;&gt;Node26</title>
<g id="a_edge32_Node000024_Node000026"><a xlink:title=" ">
<path fill="none" stroke="#63b8ff" d="M303.34,-407.63C288.63,-384.71 260.79,-341.34 243.16,-313.87"/>
<polygon fill="#63b8ff" stroke="#63b8ff" points="246.12,-311.99 237.77,-305.47 240.23,-315.77 246.12,-311.99"/>
</a>
</g>
</g>
<!-- Node27 -->
<g id="Node000027" class="node">
<title>Node27</title>
<g id="a_Node000027"><a xlink:title=" ">
<polygon fill="#e0e0e0" stroke="#999999" points="332.83,-366 293.58,-366 293.58,-346 332.83,-346 332.83,-366"/>
<text text-anchor="middle" x="313.2" y="-352.5" font-family="Helvetica,sans-Serif" font-size="10.00">utility</text>
</a>
</g>
</g>
<!-- Node24&#45;&gt;Node27 -->
<g id="edge34_Node000024_Node000027" class="edge">
<title>Node24&#45;&gt;Node27</title>
<g id="a_edge34_Node000024_Node000027"><a xlink:title=" ">
<path fill="none" stroke="#63b8ff" d="M313.2,-407.69C313.2,-398.8 313.2,-387.46 313.2,-377.77"/>
<polygon fill="#63b8ff" stroke="#63b8ff" points="316.7,-377.83 313.2,-367.83 309.7,-377.83 316.7,-377.83"/>
</a>
</g>
</g>
<!-- Node25&#45;&gt;Node4 -->
<g id="edge31_Node000025_Node000004" class="edge">
<title>Node25&#45;&gt;Node4</title>
<g id="a_edge31_Node000025_Node000004"><a xlink:title=" ">
<path fill="none" stroke="#63b8ff" d="M363.29,-271.69C364.27,-264.53 365.46,-255.79 366.58,-247.59"/>
<polygon fill="#63b8ff" stroke="#63b8ff" points="370.04,-248.11 367.92,-237.72 363.1,-247.16 370.04,-248.11"/>
</a>
</g>
</g>
<!-- Node26&#45;&gt;Node4 -->
<g id="edge33_Node000026_Node000004" class="edge">
<title>Node26&#45;&gt;Node4</title>
<g id="a_edge33_Node000026_Node000004"><a xlink:title=" ">
<path fill="none" stroke="#63b8ff" d="M260.73,-271.53C280.36,-262.46 305.37,-250.92 326.53,-241.15"/>
<polygon fill="#63b8ff" stroke="#63b8ff" points="327.9,-244.38 335.51,-237.01 324.96,-238.02 327.9,-244.38"/>
</a>
</g>
</g>
<!-- Node28&#45;&gt;Node5 -->
<g id="edge36_Node000028_Node000005" class="edge">
<title>Node28&#45;&gt;Node5</title>
<g id="a_edge36_Node000028_Node000005"><a xlink:title=" ">
<path fill="none" stroke="#63b8ff" d="M508.46,-203.69C503.58,-196.03 497.56,-186.56 492.04,-177.88"/>
<polygon fill="#63b8ff" stroke="#63b8ff" points="495.02,-176.06 486.7,-169.5 489.12,-179.82 495.02,-176.06"/>
</a>
</g>
</g>
<!-- Node29&#45;&gt;Node4 -->
<g id="edge38_Node000029_Node000004" class="edge">
<title>Node29&#45;&gt;Node4</title>
<g id="a_edge38_Node000029_Node000004"><a xlink:title=" ">
<path fill="none" stroke="#63b8ff" d="M623.78,-679.86C647.21,-656.72 687.2,-610.04 687.2,-561 687.2,-561 687.2,-561 687.2,-423 687.2,-343.47 656.13,-317.93 591.2,-272 578.57,-263.06 498.1,-245.87 437.88,-233.93"/>
<polygon fill="#63b8ff" stroke="#63b8ff" points="438.87,-230.56 428.38,-232.06 437.52,-237.42 438.87,-230.56"/>
</a>
</g>
</g>
</g>
</svg>
