<?xml version="1.0" encoding="UTF-8" standalone="no"?>
<!DOCTYPE svg PUBLIC "-//W3C//DTD SVG 1.1//EN"
 "http://www.w3.org/Graphics/SVG/1.1/DTD/svg11.dtd">
<!-- Generated by graphviz version 12.2.1 (20241206.2353)
 -->
<!-- Title: neforce::rb_tree_iterator&lt; IsConst, RbTree &gt; Pages: 1 -->
<svg width="447pt" height="102pt"
 viewBox="0.00 0.00 446.75 102.00" xmlns="http://www.w3.org/2000/svg" xmlns:xlink="http://www.w3.org/1999/xlink">
<g id="graph0" class="graph" transform="scale(1 1) rotate(0) translate(4 98)">
<title>neforce::rb_tree_iterator&lt; IsConst, RbTree &gt;</title>
<!-- Node1 -->
<g id="Node000001" class="node">
<title>Node1</title>
<g id="a_Node000001"><a xlink:title="红黑树迭代器">
<polygon fill="#999999" stroke="#666666" points="438.75,-66 319.25,-66 319.25,-34 438.75,-34 438.75,-66"/>
<text text-anchor="start" x="327.25" y="-52.5" font-family="Helvetica,sans-Serif" font-size="10.00">neforce::rb_tree_iterator</text>
<text text-anchor="middle" x="379" y="-40.5" font-family="Helvetica,sans-Serif" font-size="10.00">&lt; IsConst, RbTree &gt;</text>
</a>
</g>
</g>
<!-- Node2 -->
<g id="Node000002" class="node">
<title>Node2</title>
<g id="a_Node000002"><a xlink:href="structneforce_1_1rb__tree__base__iterator.html" target="_top" xlink:title="红黑树迭代器基类">
<polygon fill="white" stroke="#666666" points="283.25,-94 172.75,-94 172.75,-62 283.25,-62 283.25,-94"/>
<text text-anchor="start" x="180.75" y="-80.5" font-family="Helvetica,sans-Serif" font-size="10.00">neforce::rb_tree_base</text>
<text text-anchor="middle" x="228" y="-68.5" font-family="Helvetica,sans-Serif" font-size="10.00">_iterator</text>
</a>
</g>
</g>
<!-- Node2&#45;&gt;Node1 -->
<g id="edge1_Node000001_Node000002" class="edge">
<title>Node2&#45;&gt;Node1</title>
<g id="a_edge1_Node000001_Node000002"><a xlink:title=" ">
<path fill="none" stroke="#63b8ff" d="M294.82,-65.63C302.82,-64.13 310.96,-62.6 318.85,-61.11"/>
<polygon fill="#63b8ff" stroke="#63b8ff" points="294.31,-62.17 285.12,-67.45 295.6,-69.05 294.31,-62.17"/>
</a>
</g>
</g>
<!-- Node3 -->
<g id="Node000003" class="node">
<title>Node3</title>
<g id="a_Node000003"><a xlink:href="structneforce_1_1iiterator.html" target="_top" xlink:title=" ">
<polygon fill="white" stroke="#666666" points="282.88,-44 173.12,-44 173.12,0 282.88,0 282.88,-44"/>
<text text-anchor="start" x="181.12" y="-30.5" font-family="Helvetica,sans-Serif" font-size="10.00">neforce::iiterator</text>
<text text-anchor="start" x="181.12" y="-18.5" font-family="Helvetica,sans-Serif" font-size="10.00">&lt; rb_tree_iterator&lt;</text>
<text text-anchor="middle" x="228" y="-6.5" font-family="Helvetica,sans-Serif" font-size="10.00"> IsConst, RbTree &gt; &gt;</text>
</a>
</g>
</g>
<!-- Node3&#45;&gt;Node1 -->
<g id="edge2_Node000001_Node000003" class="edge">
<title>Node3&#45;&gt;Node1</title>
<g id="a_edge2_Node000001_Node000003"><a xlink:title=" ">
<path fill="none" stroke="#63b8ff" d="M294.5,-34.31C302.59,-35.83 310.81,-37.37 318.79,-38.87"/>
<polygon fill="#63b8ff" stroke="#63b8ff" points="295.18,-30.87 284.7,-32.47 293.88,-37.75 295.18,-30.87"/>
</a>
</g>
</g>
<!-- Node4 -->
<g id="Node000004" class="node">
<title>Node4</title>
<g id="a_Node000004"><a xlink:href="structneforce_1_1icomparable.html" target="_top" xlink:title=" ">
<polygon fill="white" stroke="#666666" points="136.75,-44 0,-44 0,0 136.75,0 136.75,-44"/>
<text text-anchor="start" x="8" y="-30.5" font-family="Helvetica,sans-Serif" font-size="10.00">neforce::icomparable</text>
<text text-anchor="start" x="8" y="-18.5" font-family="Helvetica,sans-Serif" font-size="10.00">&lt; rb_tree_iterator&lt; IsConst,</text>
<text text-anchor="middle" x="68.38" y="-6.5" font-family="Helvetica,sans-Serif" font-size="10.00"> RbTree &gt; &gt;</text>
</a>
</g>
</g>
<!-- Node4&#45;&gt;Node3 -->
<g id="edge3_Node000003_Node000004" class="edge">
<title>Node4&#45;&gt;Node3</title>
<g id="a_edge3_Node000003_Node000004"><a xlink:title=" ">
<path fill="none" stroke="#63b8ff" d="M148.47,-22C156.8,-22 165.13,-22 173.09,-22"/>
<polygon fill="#63b8ff" stroke="#63b8ff" points="148.65,-18.5 138.65,-22 148.65,-25.5 148.65,-18.5"/>
</a>
</g>
</g>
</g>
</svg>
